<?xml version="1.0" encoding="utf-8"?>
<!-- Generator: Adobe Illustrator 25.3.1, SVG Export Plug-In . SVG Version: 6.00 Build 0)  -->
<svg version="1.1" id="graphic" xmlns="http://www.w3.org/2000/svg" xmlns:xlink="http://www.w3.org/1999/xlink" x="0px" y="0px"
	 viewBox="0 0 874 456" style="enable-background:new 0 0 874 456;" xml:space="preserve">
<style type="text/css">
	.st0{display:none;fill:none;stroke:#FF0000;}
	.st1{fill:none;}
	.st2{fill-opacity:0;}
	.st3{clip-path:url(#SVGID_8_);fill:#EEEEEE;}
	.st4{clip-path:url(#SVGID_12_);}
	.st5{fill:#1D6996;}
	.st6{fill:#EDAD08;}
	.st7{fill:#73AF48;}
	.st8{clip-path:url(#SVGID_14_);}
	.st9{font-family:'Arial-BoldMT';}
	.st10{font-size:12.6px;}
	.st11{fill:none;stroke:#1D6996;stroke-width:3.78;}
	.st12{fill:#FFFFFF;}
	.st13{fill:none;stroke:#EDAD08;stroke-width:3.78;}
	.st14{fill:none;stroke:#73AF48;stroke-width:3.78;}
</style>
<g>
	<g transform="translate(0,0)">
		<g>
			<rect x="0" y="0" transform="matrix(0.9848 -0.1736 0.1736 0.9848 -32.9528 79.3481)" class="st0" width="874" height="456"/>
			<g>
				<rect x="0" y="0" transform="matrix(0.9848 -0.1736 0.1736 0.9848 -32.9528 79.3481)" class="st1" width="874" height="456"/>
				<rect x="0" y="0" transform="matrix(0.9848 -0.1736 0.1736 0.9848 -32.9528 79.3481)" class="st2" width="874" height="456"/>
			</g>
			<g>
				<defs>
					
						<rect id="SVGID_1_" x="0" y="0" transform="matrix(0.9848 -0.1736 0.1736 0.9848 -32.9528 79.3481)" width="874" height="456"/>
				</defs>
				<clipPath id="SVGID_2_">
					<use xlink:href="#SVGID_1_"  style="overflow:visible;"/>
				</clipPath>
			</g>
			<g>
				<defs>
					
						<rect id="SVGID_3_" x="-1.5" y="-1.5" transform="matrix(0.9848 -0.1736 0.1736 0.9848 -32.9528 79.3481)" width="877" height="459"/>
				</defs>
				<clipPath id="SVGID_4_">
					<use xlink:href="#SVGID_3_"  style="overflow:visible;"/>
				</clipPath>
			</g>
			<g>
				<defs>
					
						<rect id="SVGID_5_" x="0" y="0" transform="matrix(0.9848 -0.1736 0.1736 0.9848 -32.9528 79.3481)" width="874" height="456"/>
				</defs>
				<clipPath id="SVGID_6_">
					<use xlink:href="#SVGID_5_"  style="overflow:visible;"/>
				</clipPath>
			</g>
		</g>
		<g transform="translate(0, 0)">
			<g>
				<defs>
					
						<rect id="SVGID_7_" x="-10.5" y="-10.5" transform="matrix(0.9848 -0.1736 0.1736 0.9848 -32.9528 79.3481)" width="895" height="477"/>
				</defs>
				<clipPath id="SVGID_8_">
					<use xlink:href="#SVGID_7_"  style="overflow:visible;"/>
				</clipPath>
				<polygon class="st3" points="393.1,4.2 393.1,4.2 393.1,4.2 				"/>
			</g>
			<g>
				<defs>
					
						<rect id="SVGID_9_" x="-10.5" y="-10.5" transform="matrix(0.9848 -0.1736 0.1736 0.9848 -32.9528 79.3481)" width="895" height="477"/>
				</defs>
				<clipPath id="SVGID_10_">
					<use xlink:href="#SVGID_9_"  style="overflow:visible;"/>
				</clipPath>
			</g>
		</g>
	</g>
</g>
<g id="areas">
</g>
<g id="lines">
</g>
<g>
	<defs>
		<rect id="SVGID_11_" x="-10.5" y="-10.5" width="895" height="477"/>
	</defs>
	<clipPath id="SVGID_12_">
		<use xlink:href="#SVGID_11_"  style="overflow:visible;"/>
	</clipPath>
	<g transform="translate(0,0)" class="st4">
		<path id="point-0-0" class="st5" d="M438,0C564,0.6,665.6,103.1,665,229C664.4,355,561.9,456.6,436,456
			c-23.4-0.1-46.6-3.8-68.8-11l49.6-151.7c36.1,11.2,74.4-9,85.6-45.1s-9-74.4-45.1-85.6c-6.2-1.9-12.7-3-19.2-3.1V0z"/>
		<path id="point-0-1" class="st6" d="M365.2,444.4c-52.1-17.3-96.3-52.9-124.3-100.1l137.7-80.8c8.3,13.7,21.1,24,36.2,29.2
			L365.2,444.4z"/>
		<path id="point-0-2" class="st7" d="M239.8,342.5c-63.2-108.9-26.2-248.4,82.7-311.7C357,10.8,396.1,0.2,436,0v159.6
			c-37.8,0.6-67.9,31.7-67.4,69.4c0.2,11.5,3.2,22.7,8.9,32.7L239.8,342.5z"/>
	</g>
</g>
<g id="lines-secondary">
</g>
<g id="data-point-labels">
	<g>
		<defs>
			<rect id="SVGID_13_" x="-10.5" y="-10.5" width="895" height="477"/>
		</defs>
		<clipPath id="SVGID_14_">
			<use xlink:href="#SVGID_13_"  style="overflow:visible;"/>
		</clipPath>
		<g transform="translate(0,0)" class="st8">
			<g pointer-events="none" transform="translate(583.356201171875, 251.30471801757812)">
				<text transform="matrix(1 0 0 1 -98.3821 -3.050000e-05)" class="st9 st10">Amnt. Paid for Cigarettes: $2,611</text>
				<text transform="matrix(1 0 0 1 -98.3821 -3.050000e-05)" class="st11 st9 st10">Amnt. Paid for Cigarettes: $2,611</text>
				<text transform="matrix(1 0 0 1 -98.3821 -3.050000e-05)" class="st12 st9 st10">Amnt. Paid for Cigarettes: $2,611</text>
			</g>
			<g pointer-events="none" transform="translate(344.0464172363281, 343.42474365234375)">
				<text transform="matrix(1 0 0 1 -89.9657 0)" class="st9 st10">Amnt. Added in City Tax: $547</text>
				<text transform="matrix(1 0 0 1 -89.9657 0)" class="st13 st9 st10">Amnt. Added in City Tax: $547</text>
				<text transform="matrix(1 0 0 1 -89.9657 0)" class="st12 st9 st10">Amnt. Added in City Tax: $547</text>
			</g>
			<g pointer-events="none" transform="translate(308.3941650390625, 154.35366821289062)">
				<text transform="matrix(1 0 0 1 -98.7236 -3.030469e-05)" class="st9 st10">Amnt. Added in State Tax: $1,587</text>
				<text transform="matrix(1 0 0 1 -98.7236 -3.030469e-05)" class="st14 st9 st10">Amnt. Added in State Tax: $1,587</text>
				<text transform="matrix(1 0 0 1 -98.7236 -3.030469e-05)" class="st12 st9 st10">Amnt. Added in State Tax: $1,587</text>
			</g>
		</g>
	</g>
</g>
<g id="stack-labels">
</g>
</svg>
